<svg xmlns="http://www.w3.org/2000/svg" width="16" height="16" viewbox="0 0 16 16"><path fill-rule="evenodd" d="M5.96 12.414v-8.53h1.25v8.53H5.96zm2.843 0V3.991h1.25v8.423h-1.25zM5 2.513v11l-2.82-.745a1.25 1.25 0 01-.93-1.21V4.467c0-.567.382-1.063.93-1.208L5 2.513zM3.75 4.136v7.753l-1.25-.33V4.466l1.25-.33zM11 13.512v-11l3.378.893a.5.5 0 01.372.484v8.247a.5.5 0 01-.372.484L11 13.513zm1.25-1.623V4.136l1.25.33v7.093l-1.25.33z"/><path d="M0 7.163c0-.69.56-1.25 1.25-1.25v4c-.69 0-1.25-.56-1.25-1.25v-1.5zm16 1.5c0 .69-.56 1.25-1.25 1.25v-4c.69 0 1.25.56 1.25 1.25v1.5z"/><path fill-rule="evenodd" d="M4.659 3.715L5 2.513l1.573.446 1.435-.437 1.434.437L11 2.513l.344 1.202-1.914.547-1.422-.434-1.422.434-1.927-.547zm0 8.595L5 13.511l1.573-.446 1.435.437 1.434-.437 1.558.446.344-1.202-1.914-.548-1.422.434-1.422-.433-1.927.546z"/></svg>