<svg xmlns="http://www.w3.org/2000/svg" width="16" height="16" viewBox="0 0 16 16"><path d="M13.12 6.28c-.766 0-1.436.26-2.046.794a.75.75 0 01-.495.186.34.34 0 01-.34-.339l.002-2.193v-.046h-.002c-.02-1.452-.963-1.761-1.757-1.761h-6.72c-1.151 0-1.76.608-1.76 1.759L0 6.92c0 .894.727 1.62 1.62 1.62.492 0 .967-.178 1.338-.503.377-.33.748-.477 1.204-.477 1.265 0 1.6.942 1.6 1.44 0 .015-.019 1.44-1.6 1.44-.456 0-.827-.147-1.205-.477A2.033 2.033 0 001.62 9.46c-.893 0-1.62.726-1.62 1.62l.003 2.24c0 1.15.608 1.76 1.76 1.76h6.719c.793 0 1.737-.31 1.757-1.761h.002v-.047l-.002-2.192a.34.34 0 01.34-.34c.181 0 .357.066.495.186.61.534 1.28.794 2.046.794C14.99 11.72 16 10.318 16 9c0-1.318-1.01-2.72-2.88-2.72zm0 4.16c-.455 0-.827-.147-1.204-.477a2.031 2.031 0 00-1.337-.504c-.894 0-1.62.727-1.62 1.621l.002 2.194c0 .51-.069.525-.48.525H1.763c-.44 0-.48-.04-.48-.48l-.002-2.24a.34.34 0 01.34-.34c.181 0 .357.066.495.186.61.534 1.28.794 2.046.794 1.87 0 2.88-1.401 2.88-2.72 0-1.318-1.01-2.72-2.88-2.72-.767 0-1.436.26-2.046.794a.75.75 0 01-.495.187.34.34 0 01-.34-.34l.002-2.24c0-.44.04-.48.48-.48h6.72c.41 0 .479.015.479.525L8.959 6.92c0 .893.726 1.62 1.62 1.62.491 0 .966-.18 1.337-.504.377-.33.749-.476 1.204-.476 1.266 0 1.6.941 1.6 1.44 0 .014-.018 1.44-1.6 1.44zm-.32-5.6h1.28V3.56h1.279V2.28h-1.28V1H12.8v1.28h-1.28v1.28h1.28v1.28z"/></svg>