<svg xmlns="http://www.w3.org/2000/svg" width="16" height="16" viewbox="0 0 16 16"><g fill-rule="evenodd"><path d="M9.876 9.263V.41h1.25v8.853h-1.25zM6.125 6.762v8.853h-1.25V6.762h1.25z"/><path d="M8.183 10.787l1.034.703-2.672 3.928c-.235.345-.603.595-1.046.595-.443 0-.811-.25-1.046-.595L1.78 11.49l1.034-.703 2.672 3.928a.355.355 0 00.012.017.314.314 0 00.013-.017l2.671-3.928zm1.692-1.524V.41h1.25v8.853h-1.25z"/><path d="M7.817 5.238l-1.034-.703L9.455.607C9.69.262 10.058.013 10.5.013c.443 0 .811.249 1.046.594l2.672 3.928-1.034.703-2.672-3.928a.337.337 0 00-.012-.017.414.414 0 00-.012.017L7.816 5.238z"/></g></svg>