<svg xmlns="http://www.w3.org/2000/svg" width="16" height="16" viewbox="0 0 16 16"><g fill-rule="evenodd"><path d="M7.35 9.888h8.852v1.25H7.35v-1.25zm2.5-3.751H.998v-1.25H9.85v1.25z"/><path d="M5.826 8.195L5.122 9.23 1.194 6.558C.85 6.323.6 5.954.6 5.51c0-.442.25-.81.595-1.046l3.927-2.671.703 1.034-3.927 2.671a.359.359 0 00-.017.012l.017.013 3.928 2.671zM7.35 9.888h8.852v1.25H7.35v-1.25z"/><path d="M11.374 7.83l.704-1.035 3.928 2.672c.345.235.594.603.594 1.046 0 .443-.25.812-.595 1.046l-3.927 2.672-.703-1.034 3.927-2.672a.496.496 0 00.017-.012.414.414 0 00-.017-.012l-3.928-2.672z"/></g></svg>