<svg xmlns="http://www.w3.org/2000/svg" width="16" height="16" viewbox="0 0 16 16"><path d="M3.667 3.413c.367 0 .666.28.666.625 0 .344-.299.625-.666.625-.368 0-.667-.28-.667-.625s.299-.625.667-.625zm2.575 0c.367 0 .666.28.666.625 0 .344-.299.625-.666.625-.368 0-.667-.28-.667-.625s.299-.625.667-.625zm3.241.625c0-.345-.299-.625-.666-.625-.368 0-.667.28-.667.625 0 .344.299.625.667.625.367 0 .666-.28.666-.625z"/><path fill-rule="evenodd" d="M1.75 1.513c-.69 0-1.25.56-1.25 1.25v10.5c0 .69.56 1.25 1.25 1.25h12.5c.69 0 1.25-.56 1.25-1.25v-10.5c0-.69-.56-1.25-1.25-1.25H1.75zm12.5 1.25H1.75v2.5h12.5v-2.5zm0 3.75H1.75v6.75h12.5v-6.75z"/></svg>