<svg xmlns="http://www.w3.org/2000/svg" width="16" height="16" viewbox="0 0 16 16"><path fill-rule="evenodd" d="M6.431 4.75h-4.65v8.5h13.5v-8.5h-4.652l-.5-1.5H6.931l-.5 1.5zm10.1-.25v9a1 1 0 01-1 1h-14a1 1 0 01-1-1v-9a1 1 0 011-1h4l.271-.816A1 1 0 016.751 2h3.558a1 1 0 01.95.684l.271.816h4a1 1 0 011 1z"/><path fill-rule="evenodd" d="M9.914 9c0-.613-.56-1.25-1.417-1.25-.858 0-1.417.637-1.417 1.25s.56 1.25 1.417 1.25S9.914 9.613 9.914 9zm1.25 0c0-1.378-1.196-2.5-2.667-2.5C7.026 6.5 5.83 7.622 5.83 9s1.196 2.5 2.667 2.5c1.47 0 2.667-1.122 2.667-2.5z"/><path d="M13.367 6c.368 0 .667.28.667.625s-.3.625-.667.625c-.368 0-.667-.28-.667-.625S13 6 13.367 6z"/></svg>