<svg xmlns="http://www.w3.org/2000/svg" width="16" height="16" viewBox="0 0 16 16"><path d="M9.242 7.082h-2.88c-1.382 0-2.082-.484-2.082-1.44s.7-1.44 2.081-1.44h3.361c.707 0 1.281.574 1.281 1.28h1.28a2.564 2.564 0 00-2.56-2.561h-1.28V1H7.161v1.92h-.8C4.257 2.92 3 3.939 3 5.643s1.257 2.72 3.362 2.72h2.88c1.381 0 2.08.485 2.08 1.44 0 .957-.699 1.441-2.08 1.441h-3.68a1.281 1.281 0 01-1.281-1.28H3a2.564 2.564 0 002.561 2.561h1.6v1.92h1.281v-1.92h.8c2.105 0 3.361-1.017 3.361-2.721 0-1.703-1.256-2.72-3.36-2.72z"/></svg>