<svg xmlns="http://www.w3.org/2000/svg" width="16" height="16" viewBox="0 0 16 16"><path d="M12.327 8a3 3 0 00-2-.7h-4.69a1.59 1.59 0 01-1.63-1.61 1.997 1.997 0 010-.25 1.59 1.59 0 011.63-1.33h4.62a1.59 1.59 0 011.57 1.33h1.5a3.08 3.08 0 00-3.07-2.83h-1.58V.31h-1.25v2.3h-1.79a3.08 3.08 0 00-3.07 2.83 2.09 2.09 0 000 .25 3.07 3.07 0 003.07 3.07h4.74a1.59 1.59 0 011.63 1.59c.01.113.01.227 0 .34a1.59 1.59 0 01-1.55 1.24h-4.7a1.59 1.59 0 01-1.55-1.24h-1.51a3.08 3.08 0 003.06 2.73h1.67v2.27h1.25v-2.27h1.7a3.08 3.08 0 003.06-2.73v-.34A3.06 3.06 0 0012.327 8z"/></svg>