<svg xmlns="http://www.w3.org/2000/svg" width="16" height="16" viewbox="0 0 16 16"><path d="M6.6 7.7c0 .414-.358.75-.8.75-.442 0-.8-.336-.8-.75 0-.415.358-.75.8-.75.442 0 .8.335.8.75zm2 .75c.442 0 .8-.336.8-.75 0-.415-.358-.75-.8-.75-.442 0-.8.335-.8.75 0 .414.358.75.8.75zm3.6-.75c0 .414-.358.75-.8.75-.442 0-.8-.336-.8-.75 0-.415.358-.75.8-.75.441 0 .8.335.8.75z"/><path fill-rule="evenodd" d="M1.67 7.21C1.67 3.75 4.77.94 8.6.94c3.83 0 6.93 2.81 6.93 6.27 0 3.46-3.1 6.27-6.93 6.27a6.783 6.783 0 01-2.31-.36 14.94 14.94 0 01-2.16 1.71 1.32 1.32 0 01-2-1.5 5.53 5.53 0 00.18-3.48 6.42 6.42 0 01-.64-2.64zm12.61-.02c0-2.75-2.55-5-5.68-5S2.93 4.47 2.93 7.24a5.25 5.25 0 00.55 2.16 6.58 6.58 0 01-.15 4.29v.06a.13.13 0 00.07 0 13.785 13.785 0 002-1.55l.56-.56.75.26a5.651 5.651 0 001.89.29c3.13 0 5.68-2.25 5.68-5z"/></svg>