<svg xmlns="http://www.w3.org/2000/svg" width="16" height="16" viewBox="0 0 16 16"><path fill-rule="evenodd" d="M10.65 2.771A7.28 7.28 0 008 2.28a7.28 7.28 0 00-2.65.491 6.773 6.773 0 00-2.14 1.327C1.965 5.243 1.28 6.756 1.28 8.36c0 1.604.685 3.117 1.93 4.262a6.772 6.772 0 002.14 1.327A7.28 7.28 0 008 14.44a7.28 7.28 0 002.65-.491 6.773 6.773 0 002.14-1.327c1.245-1.145 1.93-2.658 1.93-4.262 0-1.604-.685-3.117-1.93-4.262a6.774 6.774 0 00-2.14-1.327zM0 8.36C0 4.295 3.582 1 8 1s8 3.295 8 7.36-3.582 7.36-8 7.36-8-3.295-8-7.36zm4.006.154L6.593 11.1c.25.249.657.248.906-.002l5.13-5.152-.906-.903-4.679 4.698L4.911 7.61l-.905.905z"/></svg>