<svg xmlns="http://www.w3.org/2000/svg" width="16" height="16" viewbox="0 0 16 16"><path fill-rule="evenodd" d="M6.21 3.013v-1a2 2 0 014 0v1h4.3v2.573c0 .443-.234.852-.615 1.077L11.21 8.246v4.016h1.25c.69 0 1.25.56 1.25 1.25v2.5h-11v-2.5c0-.69.56-1.25 1.25-1.25h1.25V8.29L2.515 6.665a1.25 1.25 0 01-.605-1.07V3.012h4.3zm2.75-1v1h-1.5v-1a.75.75 0 011.5 0zm-2.5 10.25h3.5V9.657C8.807 9.555 7.71 9.18 6.852 8.43c-.139-.12-.27-.25-.392-.388v4.22zm-2.5 1.25v1.25h8.5v-1.25h-8.5zm5.95-5.117c-.889-.103-1.659-.403-2.236-.907C7 6.901 6.514 5.971 6.46 4.545v-.282h3.45v4.133zm1.3-4.133v2.532l2.05-1.209V4.263h-2.05zm-6.05 0h-2v1.331l2 1.206V4.263z"/><path d="M14.51 5.013l1.337-.711a.685.685 0 00-.322-1.29H14.51v2zM.573 4.302a.685.685 0 01.322-1.29h1.013v2l-1.335-.71z"/></svg>