<svg xmlns="http://www.w3.org/2000/svg" width="16" height="16" viewBox="0 0 16 16"><path d="M10.244 2h-.006a5.758 5.758 0 00-4.01 1.633A4.487 4.487 0 000 7.763a4.487 4.487 0 004.482 4.481c.6 0 1.193-.122 1.742-.353a5.742 5.742 0 004.014 1.633A5.769 5.769 0 0016 7.763 5.77 5.77 0 0010.244 2zm-.007 10.244a4.487 4.487 0 01-4.481-4.482h-1.28c0 1.13.327 2.183.89 3.073a3.206 3.206 0 01-.884.128A3.205 3.205 0 011.28 7.762 3.205 3.205 0 014.482 4.56c.699 0 1.363.22 1.92.64a3.178 3.178 0 011.28 2.56h1.281a4.443 4.443 0 00-1.596-3.428A4.476 4.476 0 0110.24 3.28a4.487 4.487 0 014.479 4.482 4.486 4.486 0 01-4.482 4.482z"/></svg>