<svg xmlns="http://www.w3.org/2000/svg" width="16" height="16" viewBox="0 0 16 16"><path fill-rule="evenodd" d="M10.39 1.187l3.83 3.83c.12.12.186.283.186.452v6.384a.638.638 0 01-.638.638H4.192a.638.638 0 01-.638-.638V1.638c0-.352.285-.638.638-.638h5.746c.17 0 .332.067.451.187zm1.837 3.644l-1.65-1.65v1.65h1.65zM4.83 11.215h8.299V6.108H9.938a.638.638 0 01-.639-.639V2.277H4.831v8.938zM2.277 13.77h8.299v-.638h1.277v1.277a.638.638 0 01-.638.638H1.638A.638.638 0 011 14.408V4.193c0-.353.286-.639.638-.639h1.277v1.277h-.638v8.938z"/></svg>