<svg width="160" height="150" viewBox="0 0 160 150" fill="none" xmlns="http://www.w3.org/2000/svg">
<path d="M5.02934 73.0209L5.02934 73.0207C6.09848 36.8138 38.4866 6.04975 77.861 5.02787L77.8611 5.02786C120.581 3.91776 155 35.9875 155 74.9982V83.3317C155 89.4798 149.592 94.9988 142.222 94.9988H123.884C109.167 94.9988 97.6542 108.422 102.007 122.699L104.291 130.205L104.292 130.21C106.435 137.223 100.892 145 91.9894 145H79.998C37.5518 145 3.86875 112.276 5.02934 73.0209Z" stroke="#0272D5" stroke-width="10" stroke-linecap="round" stroke-linejoin="round"/>
<path d="M44.7772 79.9988C44.7772 84.302 40.9572 88.3319 35.5551 88.3319C30.1531 88.3319 26.3331 84.302 26.3331 79.9988C26.3331 75.6956 30.1531 71.6656 35.5551 71.6656C40.9572 71.6656 44.7772 75.6956 44.7772 79.9988Z" stroke="#0272D5" stroke-width="10"/>
<path d="M58.9991 46.666C58.9991 50.9692 55.1791 54.9991 49.7771 54.9991C44.375 54.9991 40.5551 50.9692 40.5551 46.666C40.5551 42.3628 44.375 38.3328 49.7771 38.3328C55.1791 38.3328 58.9991 42.3628 58.9991 46.666Z" stroke="#0272D5" stroke-width="10"/>
<path d="M94.5541 33.3328C94.5541 37.636 90.7342 41.666 85.3321 41.666C79.9301 41.666 76.1101 37.636 76.1101 33.3328C76.1101 29.0296 79.9301 24.9997 85.3321 24.9997C90.7342 24.9997 94.5541 29.0296 94.5541 33.3328Z" stroke="#0272D5" stroke-width="10"/>
<path d="M130.109 53.3325C130.109 57.6357 126.289 61.6657 120.887 61.6657C115.485 61.6657 111.665 57.6357 111.665 53.3325C111.665 49.0293 115.485 44.9994 120.887 44.9994C126.289 44.9994 130.109 49.0293 130.109 53.3325Z" stroke="#0272D5" stroke-width="10"/>
</svg>
