<svg xmlns="http://www.w3.org/2000/svg" width="16" height="16" viewBox="0 0 16 16"><path d="M14.905 10.795l-3.11-3.11 2.364-2.364a2.378 2.378 0 00.702-1.714 2.38 2.38 0 00-.731-1.703c-.933-.902-2.45-.88-3.38.05L8.408 4.297l-3.11-3.11a.641.641 0 00-.907 0L1.188 4.39a.64.64 0 000 .906l3.11 3.11-1.509 1.509-.093.094L1.073 14.1a.711.711 0 00.925.915l4.086-1.62 1.602-1.602 3.11 3.11a.64.64 0 00.906 0l3.202-3.202a.64.64 0 000-.907zm-10.757-.428l6.494-6.493 1.576 1.575-6.494 6.495-1.576-1.577zm9.091-7.542c.217.21.338.492.34.793.003.301-.113.584-.326.797l-.129.129-1.575-1.576.108-.109c.438-.438 1.148-.453 1.582-.034zM2.547 4.843l2.297-2.297.855.856-.988.988.906.906.988-.988.896.895L5.204 7.5 2.547 4.843zm.931 6.667l1.104 1.104-1.828.725.724-1.83zm7.77 2.035l-2.656-2.657 2.296-2.297.896.896-.988.988.906.907.988-.989.856.856-2.297 2.296z"/></svg>