<svg xmlns="http://www.w3.org/2000/svg" width="16" height="16" viewBox="0 0 16 16"><path d="M6.08 9.96H.96a.96.96 0 00-.96.96v2.56c0 .53.43.96.96.96h5.12c.53 0 .96-.43.96-.96v-2.56a.96.96 0 00-.96-.96zm-.32 3.2H1.28v-1.92h4.48v1.92zM6.08 1H.96a.96.96 0 00-.96.96v5.76c0 .53.43.96.96.96h5.12c.53 0 .96-.43.96-.96V1.96A.96.96 0 006.08 1zm-.32 6.4H1.28V2.28h4.48V7.4zM15.04 1H9.28a.96.96 0 00-.96.96v2.56c0 .529.43.96.96.96h5.76a.96.96 0 00.96-.96V1.96a.96.96 0 00-.96-.96zm-.32 3.2H9.6V2.28h5.12V4.2zm.32 2.56H9.28a.96.96 0 00-.96.96v5.76c0 .53.43.96.96.96h5.76c.53 0 .96-.43.96-.96V7.72a.96.96 0 00-.96-.96zm-.32 6.4H9.6V8.04h5.12v5.12z"/></svg>