<svg xmlns="http://www.w3.org/2000/svg" width="16" height="16" viewBox="0 0 16 16"><path d="M5.586 9.98a.625.625 0 11-1.25 0 .625.625 0 011.25 0zm.624-1.425a.312.312 0 11-.624 0 .312.312 0 01.625 0z"/><path fill-rule="evenodd" d="M10.214 2.289a1.875 1.875 0 012.484-1.27l1.871.718-.448 1.167-1.87-.717a.625.625 0 00-.828.423l-.911 3.426-1.208-.32.91-3.427zM6.04 5.536c.02-.1.03-.203.03-.306 0-.91-.812-1.785-1.987-1.785S2.095 4.32 2.095 5.23c0 .656.42 1.292 1.094 1.598L3.094 8.12C1.79 7.73.845 6.583.845 5.231c0-1.677 1.45-3.036 3.238-3.036S7.32 3.555 7.32 5.23c0 .104-.005.206-.016.306H6.04z"/><path fill-rule="evenodd" d="M13.28 6.305H4.53v-1.25h8.75v1.25z"/><path fill-rule="evenodd" d="M4.536 5.055C3.376 6.12 2.655 7.604 2.655 9.246c0 3.236 2.798 5.86 6.25 5.86s6.25-2.624 6.25-5.86c0-1.642-.721-3.127-1.882-4.19h-2.278c1.744.74 2.91 2.375 2.91 4.19 0 2.47-2.162 4.61-5 4.61-2.839 0-5-2.14-5-4.61 0-1.815 1.165-3.45 2.909-4.19H4.536z"/></svg>