<svg xmlns="http://www.w3.org/2000/svg" width="16" height="16" viewbox="0 0 16 16"><path fill-rule="evenodd" d="M11.173 4.623c.179.056.35.118.511.185.486.199.92.452 1.243.765.325.315.573.73.573 1.227v5.9c0 .497-.248.912-.573 1.227-.323.313-.757.566-1.243.766-.974.4-2.277.632-3.684.632s-2.71-.233-3.684-.632c-.486-.2-.92-.453-1.243-.766-.325-.315-.573-.73-.573-1.227V6.8c0-.497.248-.912.573-1.227.323-.313.757-.566 1.243-.765.185-.077.383-.147.591-.21l-1.89-3.273L4.1.7l2.084 3.61A11.97 11.97 0 018 4.175c.665 0 1.307.052 1.902.15L11.995.7l1.082.625-1.904 3.298zm-3.75 1.833l-.562-.973a11.016 11.016 0 012.366.01l-.556.963 1.083.625.776-1.345c.248.068.475.144.68.228.396.163.676.34.847.506.168.164.193.275.193.33 0 .055-.024.166-.193.33-.17.165-.45.343-.847.506-.79.324-1.925.539-3.21.539s-2.42-.215-3.21-.539c-.396-.163-.676-.34-.847-.506-.169-.164-.193-.275-.193-.33 0-.055.024-.166.193-.33.17-.165.45-.343.847-.506.227-.093.482-.177.762-.25l.789 1.367 1.082-.625zm4.827 2.065c-.177.1-.367.19-.566.271-.974.4-2.277.633-3.684.633s-2.71-.233-3.684-.633a5.093 5.093 0 01-.566-.271V9.75c0 .055.024.166.193.33.17.165.45.343.847.506.79.324 1.925.539 3.21.539s2.42-.215 3.21-.539c.396-.163.676-.34.847-.506.168-.164.193-.275.193-.33V8.52zm0 2.95c-.177.1-.367.19-.566.271-.974.4-2.277.633-3.684.633s-2.71-.233-3.684-.633a5.11 5.11 0 01-.566-.271V12.7c0 .055.024.166.193.33.17.165.45.343.847.506.79.324 1.925.539 3.21.539s2.42-.215 3.21-.539c.396-.163.676-.34.847-.506.168-.164.193-.275.193-.33v-1.23z"/></svg>