<svg xmlns="http://www.w3.org/2000/svg" width="16" height="16" viewBox="0 0 16 16"><path fill-rule="evenodd" d="M6.221 7.22l4.34-4.35-.01-.01.45-.44.7-.69a2.19 2.19 0 011.54-.63 2.17 2.17 0 011.53.63 2.18 2.18 0 010 3.08l-.25.25-.45.44-4.34 4.36-.96.96-3.14 1.53a1.08 1.08 0 01-1.45-1.45l1.52-3.16.52-.52zm.47 1.35L5.511 11l2.43-1.17-1.25-1.26zm4.72-4.84l-3.9 3.91L8.851 9l3.86-3.96-1.3-1.31zm2.132-1.33a.91.91 0 00-.352-.07l.04.02a.88.88 0 00-.69.25l-.25.25 1.3 1.3.25-.24a.93.93 0 00-.298-1.51z"/><path d="M14.33 7.3h1.16l.01 6.35a1.211 1.211 0 01-1.17 1.25H1.67A1.211 1.211 0 01.5 13.65V3.28A1.21 1.21 0 011.67 2H8v1.28H1.67v10.37h12.66V7.3z"/></svg>