<svg xmlns="http://www.w3.org/2000/svg" width="16" height="16" viewBox="0 0 16 16"><path d="M3.593 10.969a.715.715 0 00.666.966.635.635 0 00.23-.042l3.78-1.297 5.519-5.52a2.375 2.375 0 00.7-1.712 2.375 2.375 0 00-.73-1.701c-.932-.903-2.446-.88-3.376.048l-5.499 5.5-1.29 3.758zm2.12-2.233l1.03 1.03-1.57.539.54-1.569zm.632-1.177l3.916-3.916 1.575 1.575L7.92 9.134 6.345 7.559zm6.524-4.976a1.11 1.11 0 01.013 1.588l-.14.142-1.576-1.575.122-.121c.438-.439 1.147-.454 1.58-.034z"/><path d="M14.72 6.199v7.04H1.28v-9.6h5.76v-1.28H.96a.96.96 0 00-.96.96v10.24c0 .53.43.96.96.96h14.08c.53 0 .96-.43.96-.96v-7.36h-1.28z"/></svg>