<svg xmlns="http://www.w3.org/2000/svg" width="16" height="16" viewbox="0 0 16 16"><path fill-rule="evenodd" d="M11.775 12.672l1.283 1.282.884-.883-11-11-.884.883 1.01 1.01C1.693 4.885.63 6.179.058 7.685a.873.873 0 000 .62c1.148 3.023 4.27 5.19 7.942 5.19 1.358 0 2.64-.296 3.776-.822zm-.952-.952l-1.536-1.536c-.39.209-.84.329-1.32.329-1.471 0-2.667-1.122-2.667-2.5 0-.508.162-.981.44-1.376L3.974 4.87c-1.23.763-2.179 1.86-2.695 3.126.994 2.437 3.59 4.25 6.721 4.25a7.753 7.753 0 002.824-.525zM6.654 7.55l1.673 1.673c-.113.026-.234.04-.36.04-.858 0-1.417-.637-1.417-1.25 0-.157.036-.314.104-.462z"/><path d="M10.633 8.005c-.004-1.318-1.102-2.4-2.486-2.487l2.486 2.487z"/><path d="M15.941 8.305a7.71 7.71 0 01-2.043 2.964l-.886-.885a6.503 6.503 0 001.708-2.39c-.994-2.437-3.59-4.25-6.72-4.25-.512 0-1.01.049-1.487.14L5.477 2.85A9.07 9.07 0 018 2.495c3.672 0 6.794 2.167 7.942 5.19.076.2.076.42 0 .62z"/></svg>