<svg xmlns="http://www.w3.org/2000/svg" width="16" height="16" viewbox="0 0 16 16"><path fill-rule="evenodd" d="M7.967 5.494c1.47 0 2.666 1.122 2.666 2.5 0 1.379-1.195 2.5-2.666 2.5-1.471 0-2.667-1.121-2.667-2.5 0-1.378 1.196-2.5 2.667-2.5zm0 1.25c.857 0 1.416.637 1.416 1.25 0 .614-.559 1.25-1.416 1.25-.858 0-1.417-.636-1.417-1.25 0-.613.56-1.25 1.417-1.25z"/><path fill-rule="evenodd" d="M.057 8.305a.873.873 0 010-.62c1.148-3.023 4.27-5.19 7.942-5.19 3.672 0 6.794 2.167 7.942 5.19.076.2.076.42 0 .62-1.148 3.022-4.27 5.19-7.942 5.19-3.672 0-6.794-2.168-7.942-5.19zm7.942 3.94c-3.13 0-5.727-1.813-6.72-4.25.993-2.439 3.59-4.25 6.72-4.25s5.728 1.811 6.721 4.25c-.994 2.437-3.59 4.25-6.72 4.25z"/></svg>