<svg xmlns="http://www.w3.org/2000/svg" viewBox="0 0 16 16"><path d="M4.62 8.92H3.38V2.46H2.15v6.46H.92a.93.93 0 00-.92.93v1.53a.93.93 0 00.92.93h1.23v1.23h1.23v-1.23h1.24a.93.93 0 00.92-.93V9.85a.93.93 0 00-.92-.93zm-.31 2.16H1.23v-.93h3.08zm6.46-4.93V4.62a.93.93 0 00-.92-.93H8.62V2.46H7.38v1.23H6.15a.93.93 0 00-.92.93v1.53a.93.93 0 00.92.93h1.23v6.46h1.24V7.08h1.23a.93.93 0 00.92-.93zm-1.23-.3H6.46v-.93h3.08zm5.54 2.46h-1.23V2.46h-1.23v5.85h-1.24a.92.92 0 00-.92.92v1.54a.92.92 0 00.92.92h1.24v1.85h1.23v-1.85h1.23a.92.92 0 00.92-.92V9.23a.92.92 0 00-.92-.92zm-.31 2.15h-3.08v-.92h3.08z"/></svg>