<svg xmlns="http://www.w3.org/2000/svg" width="16" height="16" viewbox="0 0 16 16"><path d="M14.068 1.44a1.3 1.3 0 00-.65.18 6.32 6.32 0 01-3 1.1c-1.66 0-3.65-1-5.65-1a11.41 11.41 0 00-3.18.46v-.09a.63.63 0 00-1.25 0v11.76a.63.63 0 101.25 0v-2.89c1.03-.314 2.102-.47 3.18-.46 1.66 0 4.4 1 6.45 1a5.86 5.86 0 003.58-1.43 1.169 1.169 0 00.47-.93V2.62a1.21 1.21 0 00-1.2-1.18zm0 7.65a4.58 4.58 0 01-2.87 1.08 17.724 17.724 0 01-3.29-.49 16 16 0 00-3.16-.48 12.3 12.3 0 00-2.95.33v-6.1a9.85 9.85 0 012.93-.47 11.59 11.59 0 012.78.48 11.9 11.9 0 002.87.52 7.5 7.5 0 003.67-1.27l.02 6.4z"/></svg>