<svg xmlns="http://www.w3.org/2000/svg" width="16" height="16" viewbox="0 0 16 16"><path d="M4.5 12.512h-2v-1.25h2v1.25z"/><path fill-rule="evenodd" d="M8 2.681c-.78-1.15-2.107-1.668-3.433-1.668-1.142 0-2.067.94-2.067 2.1 0 .322.071.627.199.9H1.25c-.69 0-1.25.56-1.25 1.25v8.5c0 .69.56 1.25 1.25 1.25h13.5c.69 0 1.25-.56 1.25-1.25v-8.5c0-.69-.56-1.25-1.25-1.25h-1.449a2.12 2.12 0 00.199-.9c0-1.16-.925-2.1-2.067-2.1-1.326 0-2.653.519-3.433 1.668zm-4.25.432c0 .488.385.85.817.85h2.689a2.391 2.391 0 00-.674-1.015c-.503-.443-1.222-.685-2.015-.685a.834.834 0 00-.817.85zm-2.5 3.4v-1.25h13.5v1.25H1.25zm0 2.5v4.75h13.5v-4.75H1.25zm10.183-5.05a.834.834 0 00.817-.85.834.834 0 00-.817-.85c-.793 0-1.512.242-2.015.685-.27.238-.514.565-.674 1.015h2.69z"/></svg>