<svg xmlns="http://www.w3.org/2000/svg" width="16" height="16" viewbox="0 0 16 16"><path fill-rule="evenodd" d="M1.192 5.34l.418-1.454A1.875 1.875 0 013.412 2.53h.438v1.25h-.438a.625.625 0 00-.6.453l-.415 1.44-.37 1.415a3.94 3.94 0 011.723-.392c1.885 0 3.443 1.3 3.672 2.975h1.157c.228-1.675 1.787-2.975 3.671-2.975a3.94 3.94 0 011.724.392l-.37-1.415-.415-1.44a.625.625 0 00-.6-.453h-.439V2.53h.438c.836 0 1.571.554 1.802 1.357l.419 1.455 1 3.82c.092.297.141.61.141.934 0 1.874-1.659 3.4-3.7 3.4-1.73 0-3.187-1.098-3.59-2.575H7.34c-.402 1.477-1.858 2.575-3.59 2.575-2.04 0-3.7-1.526-3.7-3.4 0-.324.05-.637.142-.934l1-3.82zM6.2 10.096c0-1.087-.998-2.15-2.45-2.15-1.452 0-2.45 1.063-2.45 2.15s.998 2.15 2.45 2.15c1.452 0 2.45-1.063 2.45-2.15zm3.6 0c0-1.087.998-2.15 2.45-2.15 1.452 0 2.45 1.063 2.45 2.15s-.998 2.15-2.45 2.15c-1.451 0-2.45-1.063-2.45-2.15z"/></svg>