<svg xmlns="http://www.w3.org/2000/svg" width="16" height="16" viewbox="0 0 16 16"><path fill-rule="evenodd" d="M7.904 13.771c-1.416 1.416-3.853 1.375-5.445-.217S.825 9.524 2.24 8.109l-.862-.862c-1.947 1.947-1.794 5.158.217 7.169 2.012 2.011 5.223 2.165 7.17.217l-.862-.862zm1.513-3.329c-.174.082-.404.19-.697.483-.291.291-.348.645-.355.91a3.926 3.926 0 00.018.429c.006.094.013.18.016.27.012.379-.033.775-.495 1.237l.862.862c.77-.77.87-1.534.851-2.138-.003-.117-.012-.23-.019-.325 0-.018-.002-.034-.003-.05a2.8 2.8 0 01-.01-.255.473.473 0 01.008-.088.922.922 0 01.324-.222c.04-.019.085-.04.14-.069.293-.147.634-.372 1.21-.949l-.862-.862c-.512.512-.75.649-.897.723a3.784 3.784 0 01-.091.044zM5.57 6.596a2.2 2.2 0 01-.483.697c-.291.291-.644.348-.909.354a3.922 3.922 0 01-.43-.017 6.622 6.622 0 00-.27-.016c-.378-.012-.774.032-1.237.495l-.862-.862c.77-.77 1.534-.871 2.139-.852.116.004.23.012.325.02.017 0 .034.002.05.003.111.008.19.012.255.01a.474.474 0 00.088-.008.922.922 0 00.222-.325l.068-.14c.148-.292.373-.633.949-1.21l.862.863c-.511.511-.648.75-.723.897l-.043.09z"/><path fill-rule="evenodd" d="M10.223 5.79c1.155 1.154 1.174 2.893.182 3.885l.862.862c1.53-1.53 1.386-4.042-.181-5.61-1.568-1.568-4.081-1.711-5.611-.181l.862.862c.993-.993 2.732-.974 3.886.181z"/><path d="M16 1.772L14.24.012l-1.833 1.833.074 1.687 1.686.073L16 1.772z"/><path fill-rule="evenodd" d="M6.248 9.764c.272.272.247.65.05.847-.196.197-.575.222-.847-.05s-.246-.65-.05-.847c.197-.197.575-.222.847.05zm.913 1.71c.72-.72.65-1.872-.05-2.572-.7-.7-1.852-.77-2.572-.05s-.65 1.872.05 2.571c.7.7 1.852.77 2.572.05z"/><path d="M13.713 3.18l-.88-.88-5.437 5.437.88.88 5.437-5.438z"/></svg>