<svg xmlns="http://www.w3.org/2000/svg" width="16" height="16" viewBox="0 0 16 16"><path d="M8 1C2.095 1 0 4.965 0 8.36c0 3.395 2.095 7.36 8 7.36 5.905 0 8-3.965 8-7.36C16 4.965 13.905 1 8 1zm6.72 7.36c0 .808-.113 1.505-.303 2.114l-2.142-.939a4.534 4.534 0 000-2.349l2.102-.921a6.96 6.96 0 01.343 2.095zm-.868-3.263l-2.099.92a3.635 3.635 0 00-1.462-1.274l.85-1.93c1.344.529 2.186 1.388 2.71 2.284zM8 11.275c-3.015 0-3.25-2.231-3.25-2.915 0-.684.235-2.915 3.25-2.915s3.25 2.23 3.25 2.915c0 .684-.235 2.915-3.25 2.915zm1.899-8.82l-.835 1.898A6.207 6.207 0 008 4.263c-.384 0-.737.033-1.064.09l-.821-1.865A9.295 9.295 0 018 2.28c.706 0 1.333.064 1.899.175zm-5.02.4l.83 1.888a3.636 3.636 0 00-1.462 1.273l-2.14-.937c.697-1.144 1.742-1.824 2.771-2.224zm-3.6 5.505c0-.808.113-1.505.304-2.113l2.142.939c-.104.39-.156.789-.156 1.174 0 .386.051.785.156 1.175l-2.102.921A6.964 6.964 0 011.28 8.36zm.869 3.263l2.099-.92c.339.514.819.96 1.463 1.274l-.85 1.93c-1.344-.528-2.187-1.388-2.712-2.284zm3.954 2.642l.835-1.898c.327.057.68.09 1.063.09a6.21 6.21 0 001.064-.09l.82 1.866A9.288 9.288 0 018 14.44a9.814 9.814 0 01-1.898-.175zm5.02-.4l-.831-1.888a3.636 3.636 0 001.462-1.273l2.14.937c-.697 1.145-1.742 1.824-2.771 2.225z"/></svg>