<svg xmlns="http://www.w3.org/2000/svg" width="16" height="16" viewbox="0 0 16 16"><path fill-rule="evenodd" d="M8.993 2.64a.626.626 0 00-.797 0L2.578 7.294a.626.626 0 00-.227.481v6.98H1.1v-6.98c0-.559.25-1.089.68-1.445l5.618-4.652a1.877 1.877 0 012.392 0l5.629 4.652c.431.356.681.886.681 1.446v6.979h-1.251v-6.98a.625.625 0 00-.227-.482L8.993 2.64z"/><path fill-rule="evenodd" d="M8.6 10.503c-1.031 0-1.8.778-1.8 1.649H5.549c0-1.637 1.406-2.9 3.051-2.9 1.645 0 3.051 1.263 3.051 2.9H10.4c0-.871-.77-1.649-1.8-1.649z"/><path fill-rule="evenodd" d="M5.549 14.754v-2.602H6.8v2.602H5.549zm4.851 0v-2.602h1.251v2.602H10.4z"/></svg>