<svg xmlns="http://www.w3.org/2000/svg" width="16" height="16" viewbox="0 0 16 16"><path fill-rule="evenodd" d="M8.6 7.074C7.662 5.47 6.354 4.29 4.532 4.29 2.36 4.289.6 5.967.6 8.039c0 2.07 1.76 3.75 3.932 3.75 1.822 0 3.13-1.182 4.068-2.786.938 1.604 2.246 2.786 4.068 2.786 2.172 0 3.932-1.68 3.932-3.75 0-2.072-1.76-3.75-3.932-3.75-1.822 0-3.13 1.181-4.068 2.785zm-6.75.965c0-1.326 1.144-2.5 2.682-2.5 1.27 0 2.316.873 3.175 2.5-.859 1.626-1.905 2.5-3.175 2.5-1.538 0-2.682-1.175-2.682-2.5zm13.5 0c0-1.326-1.144-2.5-2.682-2.5-1.27 0-2.316.873-3.175 2.5.859 1.626 1.905 2.5 3.175 2.5 1.538 0 2.682-1.175 2.682-2.5z"/></svg>