<svg xmlns="http://www.w3.org/2000/svg" width="16" height="16" viewBox="0 0 16 16"><path d="M5.45 6.325h5.25v-1.25H5.45v1.25zm0 2.4h5.25v-1.25H5.45v1.25zm0 2.35h5.25v-1.25H5.45v1.25z"/><path fill-rule="evenodd" d="M13.525 15.984V.016l-2.191.967L9.642.296 8.084.984 6.41.296 4.85.983 2.475.023v15.954l2.375-.96 1.56.687 1.674-.688 1.558.688 1.692-.687 2.191.967zm-9.8-1.86V1.876l1.146.463 1.556-.686 1.674.689 1.561-.69 1.692.687.921-.406v12.132l-.92-.406-1.693.686-1.56-.69-1.675.69-1.556-.686-1.146.463z"/></svg>