<svg xmlns="http://www.w3.org/2000/svg" width="16" height="16" viewBox="0 0 16 16"><path fill-rule="evenodd" d="M16 8c0 4.142-3.582 7.5-8 7.5S0 12.142 0 8C0 3.858 3.582.5 8 .5s8 3.358 8 7.5zm-1.25 0c0 .933-.225 1.827-.63 2.633l-1.768-1.761a3.898 3.898 0 00-.019-1.821L14.085 5.3A5.85 5.85 0 0114.75 8zm-1.366-3.767a6.61 6.61 0 00-1.78-1.521l-1.592 1.585c.733.348 1.35.879 1.779 1.528l1.593-1.592zm-2.99-2.08A7.222 7.222 0 008 1.75c-.835 0-1.629.138-2.359.39l1.715 1.753a4.806 4.806 0 011.29 0l1.748-1.74zM8 14.25c.868 0 1.692-.15 2.446-.42l-1.734-1.733a4.79 4.79 0 01-1.408.003L5.56 13.83a7.21 7.21 0 002.44.419zm-3.644-.986l1.593-1.58a4.357 4.357 0 01-1.776-1.565l-1.6 1.594a6.602 6.602 0 001.783 1.551zM1.25 8c0 .934.225 1.83.632 2.637l1.768-1.76a3.897 3.897 0 01.019-1.834L1.913 5.302A5.85 5.85 0 001.25 8zm12.18 3.71a6.6 6.6 0 01-1.783 1.552l-1.585-1.583a4.356 4.356 0 001.767-1.563l1.6 1.594zM4.212 5.821a4.37 4.37 0 011.786-1.528L4.432 2.692a6.615 6.615 0 00-1.818 1.544l1.598 1.585zM11.2 8c0 1.52-1.35 2.9-3.2 2.9S4.8 9.52 4.8 8 6.15 5.1 8 5.1s3.2 1.38 3.2 2.9z"/></svg>