<svg xmlns="http://www.w3.org/2000/svg" width="16" height="16" viewBox="0 0 16 16"><path d="M8 1.92a4.37 4.37 0 013 1.13 3.51 3.51 0 011.18 2.59 9.53 9.53 0 01-1.82 5.43A14.47 14.47 0 018 13.71a14.47 14.47 0 01-2.34-2.64 9.53 9.53 0 01-1.82-5.43A3.51 3.51 0 015 3.05a4.37 4.37 0 013-1.13M8 .64a5.24 5.24 0 00-5.44 5c0 4.9 3.78 8.38 5 9.41a.64.64 0 00.8 0c1.26-1 5-4.51 5-9.41A5.24 5.24 0 008 .64z"/><path d="M8 4.49a1.75 1.75 0 011.17.42 1.17 1.17 0 01.41.85 1.17 1.17 0 01-.41.85 1.83 1.83 0 01-2.33 0 1.09 1.09 0 010-1.7A1.74 1.74 0 018 4.49m0-1.28a2.71 2.71 0 00-2.86 2.55A2.71 2.71 0 008 8.31a2.72 2.72 0 002.86-2.55A2.72 2.72 0 008 3.21z"/></svg>