<svg width="16" height="16" viewBox="0 0 16 16" fill="none" xmlns="http://www.w3.org/2000/svg">
<path d="M8 1.92C9.10704 1.90303 10.1793 2.3069 11 3.05C11.3666 3.37538 11.6611 3.77395 11.8643 4.22003C12.0675 4.66612 12.1751 5.14982 12.18 5.64C12.1444 7.59379 11.509 9.4894 10.36 11.07C9.68438 12.0433 8.89178 12.9299 8 13.71C7.11524 12.9287 6.3294 12.0421 5.66 11.07C4.51097 9.4894 3.87561 7.59379 3.84 5.64C3.8424 5.15132 3.94682 4.66853 4.14657 4.22254C4.34632 3.77654 4.637 3.37717 5 3.05C5.82074 2.3069 6.89296 1.90303 8 1.92ZM8 0.639999C6.61664 0.585754 5.26803 1.08116 4.24875 2.018C3.22946 2.95484 2.56 4.22254 2.56 5.64C2.56 10.54 6.34 14.02 7.56 15.05C7.67351 15.1409 7.81459 15.1904 7.96 15.1904C8.10541 15.1904 8.24649 15.1409 8.36 15.05C9.62 14.05 13.36 10.54 13.36 5.64C13.36 4.22003 12.7017 2.98142 11.6998 2.04682C10.6979 1.11221 9.36975 0.607202 8 0.639999Z" fill="black"/>
<path d="M8.00001 4.49C8.42827 4.4821 8.84456 4.63153 9.17001 4.91C9.29363 5.01545 9.39393 5.14548 9.46452 5.29183C9.53511 5.43817 9.57444 5.59762 9.58001 5.76C9.57444 5.92238 9.53511 6.08183 9.46452 6.22817C9.39393 6.37451 9.29363 6.50455 9.17001 6.61C8.84212 6.88068 8.4302 7.02873 8.00501 7.02873C7.57983 7.02873 7.16791 6.88068 6.84001 6.61C6.71278 6.50786 6.6101 6.37846 6.53955 6.23135C6.46899 6.08423 6.43236 5.92316 6.43236 5.76C6.43236 5.59684 6.46899 5.43576 6.53955 5.28865C6.6101 5.14154 6.71278 5.01214 6.84001 4.91C7.16241 4.63302 7.57503 4.48362 8.00001 4.49ZM8.00001 3.21C7.25 3.21 6.57837 3.41466 6.04205 3.89285C5.50573 4.37103 5.14003 5.00781 5.14001 5.76C5.14001 6.44531 5.50573 7.14896 6.04205 7.62715C6.57837 8.10534 7.28264 8.35096 8.00001 8.31C8.71673 8.34828 9.41953 8.10173 9.95524 7.62408C10.491 7.14643 10.86 6.5 10.86 5.76C10.86 5.07031 10.491 4.37357 9.95524 3.89592C9.41953 3.41827 8.69531 3.21 8.00001 3.21Z" fill="black"/>
</svg>
