<svg xmlns="http://www.w3.org/2000/svg" width="16" height="16" viewbox="0 0 16 16"><path fill-rule="evenodd" d="M3.098 5.767V8.97h3.944c.317 0 .631.06.925.177l6.17 2.462V3.13L7.968 5.59m0 0a2.497 2.497 0 01-.925.177H3.098m-1.249 0V8.97c0 .69.56 1.25 1.25 1.25h3.943c.159 0 .316.03.463.088l6.17 2.462a1.25 1.25 0 001.712-1.161V3.13a1.25 1.25 0 00-1.712-1.161l-6.17 2.459a1.249 1.249 0 01-.463.088H3.098c-.69 0-1.249.56-1.249 1.25z"/><path d="M1.85 5.87v3H.6v-3h1.25zm5.746-1.25v4.624h-1.25V4.62h1.25z"/><path fill-rule="evenodd" d="M2.52 8.975l2.068 4.424c.205.44.647.72 1.132.72h.626c.69 0 1.25-.559 1.25-1.25V8.976H2.52zm1.963 1.25L5.72 12.87h.626v-2.645H4.483zM15.388 8.62h.032c.645 0 1.17-.56 1.17-1.25s-.525-1.25-1.17-1.25h-.032v2.5z"/></svg>