<svg xmlns="http://www.w3.org/2000/svg" width="16" height="16" viewbox="0 0 16 16"><g fill-rule="evenodd"><path d="M11.172 1.131l1.65-.87.584 1.106-1.651.87a.625.625 0 00-.3.352l-1.238 3.65-1.184-.4 1.237-3.65c.154-.456.477-.834.902-1.058zm-5.905 9.554l1.666 1.45 1.667-1.45 1.667 1.45 1.666-1.45 2.077 1.807-.82.943-1.257-1.093-1.666 1.45-1.667-1.45-1.667 1.45-1.666-1.45-1.257 1.093-.82-.943 2.077-1.807z"/><path d="M12.975 6.964h-8.75v-1.25h8.75v1.25zm1.263 2.475H3.088v-1.25h11.15v1.25z"/><path d="M4.232 5.714C3.07 6.778 2.35 8.262 2.35 9.904c0 3.237 2.798 5.86 6.25 5.86s6.25-2.623 6.25-5.86c0-1.642-.72-3.126-1.882-4.19h-1.705c1.563.855 2.587 2.436 2.587 4.19 0 2.624-2.289 4.86-5.25 4.86s-5.25-2.236-5.25-4.86c0-1.754 1.024-3.335 2.587-4.19H4.232z"/></g></svg>