<svg xmlns="http://www.w3.org/2000/svg" width="16" height="16" viewbox="0 0 16 16"><path fill-rule="evenodd" d="M2.79 11.3c1.2 1.67 3.256 2.8 5.625 2.8 3.8 0 6.75-2.88 6.75-6.25 0-2.207-1.257-4.198-3.2-5.314v.014c0 4.875-4.181 8.712-9.174 8.75zm-1.536-.109a7.613 7.613 0 01-.341-.735 7.105 7.105 0 01-.118-.32c-.05-.145.083-.284.234-.253a8.425 8.425 0 001.686.167c4.413 0 8-3.365 8-7.5 0-.196-.008-.391-.024-.584 0-.013-.002-.025-.003-.038a7.03 7.03 0 00-.161-1c-.036-.15.098-.288.246-.245a8.279 8.279 0 011.06.386c2.707 1.204 4.582 3.792 4.582 6.781 0 4.135-3.587 7.5-8 7.5-3.132 0-5.849-1.696-7.161-4.159z"/></svg>