<svg xmlns="http://www.w3.org/2000/svg" width="16" height="16" viewBox="0 0 16 16"><path d="M14.822 11.713l-1.54-2.565V7.404c0-1.59-.763-3.38-2.758-4.106v-.376C10.524 1.965 9.892 1 8.48 1c-1.411 0-2.043.965-2.043 1.922v.375c-1.997.725-2.761 2.517-2.761 4.108v1.743l-1.54 2.566a.961.961 0 00.825 1.455h2.773c0 1.275.85 2.562 2.745 2.562 1.896 0 2.745-1.287 2.745-2.562h2.774a.962.962 0 00.824-1.456zM7.718 2.922c0-.425.257-.64.762-.64.506 0 .763.215.763.64v.085a6.983 6.983 0 00-.764-.044c-.268 0-.519.018-.761.044v-.085zm.761 11.527c-1.273 0-1.463-.802-1.464-1.28h2.928c0 .478-.19 1.28-1.464 1.28zm-4.953-2.562l1.248-2.08a1.28 1.28 0 00.183-.659V7.404c0-.741.254-3.16 3.522-3.16 3.269 0 3.523 2.419 3.523 3.16v1.744c0 .232.063.46.182.66l1.248 2.08H3.526z"/></svg>