<svg xmlns="http://www.w3.org/2000/svg" width="16" height="16" viewBox="0 0 16 16"><path fill-rule="evenodd" d="M0 8.36C0 4.295 3.582 1 8 1c4.419 0 8 3.295 8 7.36s-3.582 7.36-8 7.36-8-3.295-8-7.36zm10.65 5.589a6.765 6.765 0 002.14-1.327c1.245-1.145 1.93-2.658 1.93-4.262 0-1.604-.685-3.117-1.93-4.262a6.772 6.772 0 00-2.14-1.327A7.28 7.28 0 008 2.28a7.28 7.28 0 00-2.65.491 6.773 6.773 0 00-2.14 1.327C1.965 5.243 1.28 6.756 1.28 8.36c0 1.604.685 3.117 1.93 4.262a6.772 6.772 0 002.14 1.327A7.28 7.28 0 008 14.44a7.28 7.28 0 002.65-.491zM7.36 4.2h1.28v3.52h4.16V9H8.64v3.52H7.36V9H3.2V7.72h4.16V4.201z"/></svg>