<svg xmlns="http://www.w3.org/2000/svg" width="16" height="16" viewbox="0 0 16 16"><path fill-rule="evenodd" d="M5.625 1.263V3.51H3.75c-.69 0-1.25.56-1.25 1.25v2.5h-.025c-.69 0-1.25.56-1.25 1.25v2.502A1.25 1.25 0 000 12.263v3.75h16v-3.75a1.25 1.25 0 00-1.225-1.25V8.51c0-.69-.56-1.25-1.25-1.25H13.5v-2.5c0-.69-.56-1.25-1.25-1.25h-1.875V1.263c0-.69-.56-1.25-1.25-1.25h-2.25c-.69 0-1.25.56-1.25 1.25zm3.5 0h-2.25V3.51h2.25V1.263zm1.304 3.498l.682 2.5h1.139v-2.5h-1.821zm1.024 3.75l.682 2.5h1.39v-2.5h-2.072zm1.024 3.752l.682 2.5h1.591v-2.5h-2.273zm-9.636 2.5l.684-2.5H1.25v2.5h1.591zm1.026-3.752l.684-2.5H2.475v2.5h1.392zm1.026-3.75l.684-2.5H3.75v2.5h1.143zm-.755 7.5l2.735-10h2.26l2.73 10H4.138z"/></svg>