<svg width="150" height="130" viewBox="0 0 150 130" fill="none" xmlns="http://www.w3.org/2000/svg">
<path fill-rule="evenodd" clip-rule="evenodd" d="M9.81688 9.91923C9.43474 10.2473 9.37499 10.5282 9.37499 10.6786V46.8928C9.37499 47.0432 9.43474 47.3241 9.81688 47.6522C10.2086 47.9884 10.8667 48.2857 11.7187 48.2857H53.9062C54.7582 48.2857 55.4163 47.9884 55.808 47.6522C56.1902 47.3241 56.2499 47.0432 56.2499 46.8928V10.6786C56.2499 10.5282 56.1902 10.2473 55.808 9.91923C55.4163 9.58298 54.7582 9.28571 53.9062 9.28571H11.7187C10.8667 9.28571 10.2086 9.58298 9.81688 9.91923ZM0 10.6786C0 4.17946 5.89886 0 11.7187 0H53.9062C59.726 0 65.6249 4.17946 65.6249 10.6786V46.8928C65.6249 53.3919 59.726 57.5714 53.9062 57.5714H11.7187C5.89886 57.5714 0 53.3919 0 46.8928V10.6786Z" fill="#0272D5"/>
<path fill-rule="evenodd" clip-rule="evenodd" d="M9.81688 82.3478C9.43474 82.6759 9.37499 82.9568 9.37499 83.1072V119.321C9.37499 119.472 9.43474 119.753 9.81688 120.081C10.2086 120.417 10.8667 120.714 11.7187 120.714H53.9062C54.7582 120.714 55.4163 120.417 55.808 120.081C56.1902 119.753 56.2499 119.472 56.2499 119.321V83.1072C56.2499 82.9568 56.1902 82.6759 55.808 82.3478C55.4163 82.0116 54.7582 81.7143 53.9062 81.7143H11.7187C10.8667 81.7143 10.2086 82.0116 9.81688 82.3478ZM0 83.1072C0 76.6081 5.89886 72.4286 11.7187 72.4286H53.9062C59.726 72.4286 65.6249 76.6081 65.6249 83.1072V119.321C65.6249 125.821 59.726 130 53.9062 130H11.7187C5.89886 130 0 125.821 0 119.321V83.1072Z" fill="#0272D5"/>
<path fill-rule="evenodd" clip-rule="evenodd" d="M94.1915 9.91923C93.8094 10.2473 93.7496 10.5282 93.7496 10.6786V46.8928C93.7496 47.0432 93.8094 47.3241 94.1915 47.6522C94.5832 47.9884 95.2413 48.2857 96.0934 48.2857H138.281C139.133 48.2857 139.791 47.9884 140.183 47.6522C140.565 47.3241 140.625 47.0432 140.625 46.8928V10.6786C140.625 10.5282 140.565 10.2473 140.183 9.91923C139.791 9.58298 139.133 9.28571 138.281 9.28571H96.0934C95.2413 9.28571 94.5832 9.58298 94.1915 9.91923ZM84.3746 10.6786C84.3746 4.17946 90.2735 0 96.0934 0H138.281C144.101 0 150 4.17946 150 10.6786V46.8928C150 53.392 144.101 57.5714 138.281 57.5714H96.0934C90.2735 57.5714 84.3746 53.392 84.3746 46.8928V10.6786Z" fill="#0272D5"/>
<path fill-rule="evenodd" clip-rule="evenodd" d="M89.0621 72.4286C91.651 72.4286 93.7496 74.5073 93.7496 77.0714V101.214C93.7496 103.778 91.651 105.857 89.0621 105.857C86.4733 105.857 84.3746 103.778 84.3746 101.214V77.0714C84.3746 74.5073 86.4733 72.4286 89.0621 72.4286Z" fill="#0272D5"/>
<path fill-rule="evenodd" clip-rule="evenodd" d="M117.187 72.4286C119.776 72.4286 121.875 74.5073 121.875 77.0714V125.357C121.875 127.921 119.776 130 117.187 130H89.0621C86.4733 130 84.3746 127.921 84.3746 125.357C84.3746 122.793 86.4733 120.714 89.0621 120.714H112.5V77.0714C112.5 74.5073 114.598 72.4286 117.187 72.4286Z" fill="#0272D5"/>
<path fill-rule="evenodd" clip-rule="evenodd" d="M112.5 89.1428C112.5 86.5786 114.599 84.4999 117.187 84.4999H145.312C147.901 84.4999 150 86.5786 150 89.1428C150 91.707 147.901 93.7857 145.312 93.7857H117.187C114.599 93.7857 112.5 91.707 112.5 89.1428Z" fill="#0272D5"/>
<path fill-rule="evenodd" clip-rule="evenodd" d="M145.312 108.643C147.901 108.643 150 110.721 150 113.286V125.357C150 127.921 147.901 130 145.312 130C142.723 130 140.625 127.921 140.625 125.357V113.286C140.625 110.721 142.723 108.643 145.312 108.643Z" fill="#0272D5"/>
</svg>
