<svg xmlns="http://www.w3.org/2000/svg" width="16" height="16" viewBox="0 0 16 16"><path fill-rule="evenodd" d="M8 1C3.582 1 0 4.295 0 8.36s3.582 7.36 8 7.36 8-3.295 8-7.36S12.418 1 8 1zm4.79 11.622a6.767 6.767 0 01-2.14 1.326A7.274 7.274 0 018 14.44a7.28 7.28 0 01-2.65-.492 6.772 6.772 0 01-2.14-1.326C1.964 11.477 1.28 9.964 1.28 8.36c0-1.604.685-3.118 1.93-4.263a6.773 6.773 0 012.14-1.326A7.274 7.274 0 018 2.28a7.3 7.3 0 012.65.49 6.774 6.774 0 012.14 1.327c1.245 1.145 1.93 2.659 1.93 4.263s-.685 3.117-1.93 4.262zM8 11.24a.961.961 0 000 1.92.961.961 0 000-1.92zm.027-7.401c.797 0 1.524.257 2.048.723a2.4 2.4 0 01.807 1.815c0 .825-.334 1.482-1.083 2.13-.066.057-.136.115-.21.176l-.008.006c-.465.384-.993.82-.993 1.4v.19H7.293v-.336c0-.595.434-1.246 1.222-1.833.694-.528 1.045-1.07 1.045-1.614 0-.814-.665-1.428-1.546-1.428-.88 0-1.539.64-1.608 1.539H5.121c.06-1.612 1.264-2.768 2.906-2.768z"/></svg>