<svg xmlns="http://www.w3.org/2000/svg" width="16" height="16" viewbox="0 0 16 16"><path fill-rule="evenodd" d="M8.2 14.25c3.805 0 6.75-2.873 6.75-6.25S12.005 1.75 8.2 1.75 1.45 4.623 1.45 8s2.945 6.25 6.75 6.25zm0 1.25c4.418 0 8-3.358 8-7.5 0-4.142-3.582-7.5-8-7.5S.2 3.858.2 8c0 4.142 3.582 7.5 8 7.5z"/><path fill-rule="evenodd" d="M8.22 4.3c.637 0 1.217.191 1.635.54.416.345.645.825.645 1.351 0 .615-.267 1.105-.865 1.588.598-.483.865-.973.865-1.588 0-.526-.229-1.006-.645-1.352-.418-.348-.998-.539-1.635-.539zm1.24 3.615c-.37.286-.792.61-.792 1.043V9.1v-.142c0-.433.421-.757.793-1.043zm-.913-.522c-.637.443-1.022.957-1.022 1.456v.361h1.252v-.252c0-.179.087-.343.23-.504a3.79 3.79 0 01.52-.452c.062-.047.12-.092.176-.138.617-.498.906-1.017.906-1.673 0-.56-.244-1.07-.684-1.436-.441-.367-1.048-.565-1.706-.565-1.362 0-2.379.901-2.43 2.168l-.005.115h1.243l.008-.101c.05-.61.526-1.046 1.174-1.046.659 0 1.125.423 1.125.954 0 .35-.244.726-.788 1.113zM7.53 10.95zm1.41 0a.76.76 0 10-1.52 0 .76.76 0 001.52 0z"/></svg>