<svg xmlns="http://www.w3.org/2000/svg" width="16" height="16" viewbox="0 0 16 16"><path fill-rule="evenodd" d="M2.621 5.513v4.997h1.25V8.912h.877A1.599 1.599 0 016.26 10.51h1.25a2.84 2.84 0 00-.769-1.947 1.7 1.7 0 00-1.034-3.05H2.621zm2.156 2.15h.93a.45.45 0 100-.9H3.871v.897h.79c.039 0 .078 0 .116.002z"/><path d="M10.37 4.217h1.25v1.25h.32c.85 0 1.55.68 1.58 1.53h-1.25a.342.342 0 00-.33-.28h-1.91c-.16 0-.3.12-.33.28-.01.02-.01.04-.01.06 0 .19.15.34.34.34h1.96c.49 0 .94.23 1.23.59.22.27.35.62.34.99v.04c-.02.85-.72 1.54-1.58 1.54h-.355v1.251h-1.25v-1.251h-.305c-.86 0-1.56-.69-1.58-1.54h1.26c.02.16.16.29.33.29H12c.17 0 .31-.13.33-.29v-.04c0-.19-.15-.34-.34-.34h-1.97a1.586 1.586 0 01-1.58-1.58v-.06c.04-.85.73-1.53 1.59-1.53h.34v-1.25z"/><path fill-rule="evenodd" d="M8 15.512c4.418 0 8-3.357 8-7.5 0-4.142-3.582-7.5-8-7.5s-8 3.358-8 7.5c0 4.143 3.582 7.5 8 7.5zm0-1.25c3.805 0 6.75-2.873 6.75-6.25S11.805 1.763 8 1.763s-6.75 2.874-6.75 6.25c0 3.377 2.945 6.25 6.75 6.25z"/></svg>