<svg xmlns="http://www.w3.org/2000/svg" width="16" height="16" viewbox="0 0 16 16"><path d="M11.28 4.967c.487.486.515 1.247.064 1.699-.452.451-1.213.423-1.7-.063-.486-.487-.514-1.247-.062-1.7.451-.451 1.212-.423 1.699.064z"/><path fill-rule="evenodd" d="M12.71 8.77a.863.863 0 01-.063.062l-1.841 1.572.505 2.399a1 1 0 01-.272.913l-.678.679a1 1 0 01-1.55-.169l-1.315-2.055c-.03-.024-.06-.05-.088-.078L4.155 8.84a1.007 1.007 0 01-.078-.088L2.022 7.437a1 1 0 01-.168-1.55l.678-.678a1 1 0 01.913-.271l2.4.505L7.417 3.6a.858.858 0 01.062-.063c1.973-1.876 4.73-2.18 6.494-2.146.486.01.874.398.883.884.035 1.764-.27 4.52-2.145 6.494zM8.349 4.436L5.203 8.12l2.926 2.926L11.812 7.9c1.422-1.501 1.781-3.633 1.796-5.26-1.627.015-3.758.374-5.26 1.796zM4 7.219l.64-.753-1.32-.277-.362.363L4 7.219zm5.03 5.029l.752-.639.278 1.319-.363.363-.668-1.043zm-6.146-1.481c-1.145 1.145-1.05 2.867-.987 3.41a.223.223 0 00.194.195c.543.063 2.266.157 3.41-.987.646-.646.584-1.758-.138-2.48-.722-.721-1.834-.783-2.479-.138zM4.48 11.79a.71.71 0 01.218.454c.007.134-.036.213-.08.257-.332.333-.779.515-1.26.599a3.654 3.654 0 01-.22.03 3.61 3.61 0 01.032-.218c.084-.481.266-.928.6-1.261.043-.043.122-.087.256-.08a.716.716 0 01.454.219z"/></svg>