<svg xmlns="http://www.w3.org/2000/svg" width="16" height="16" viewbox="0 0 16 16"><path fill-rule="evenodd" d="M3.95 12.23c0-.473-.457-1.042-1.25-1.042-.793 0-1.25.569-1.25 1.042 0 .473.457 1.042 1.25 1.042.793 0 1.25-.569 1.25-1.042zm1.25 0c0-1.264-1.121-2.292-2.5-2.292S.2 10.966.2 12.23c0 1.263 1.121 2.292 2.5 2.292s2.5-1.029 2.5-2.292zm7.375-3.424c-1.35 0-2.375 1.017-2.375 2.176H8.95c0-1.93 1.666-3.426 3.625-3.426S16.2 9.053 16.2 10.982h-1.25c0-1.16-1.024-2.176-2.375-2.176z"/><path fill-rule="evenodd" d="M7.356 8.511h2.732v1.25H7.356c-.406 0-.801-.132-1.126-.376L4.425 8.03l.75-1 1.806 1.356c.108.081.24.125.375.125zM16.2 12.23H4.775v-1.25H16.2v1.25zm-9-8.2H3.325V2.78H7.2v1.25z"/><path fill-rule="evenodd" d="M3.95 7.183V3.53H5.2v3.653c0 .34-.093.674-.268.966l-1.721 2.865-1.072-.643 1.722-2.866a.625.625 0 00.089-.322zm11-4.403h-3.8v3h3.8v-3zm-3.8-1.25c-.69 0-1.25.56-1.25 1.25v3c0 .69.56 1.25 1.25 1.25h3.8c.69 0 1.25-.56 1.25-1.25v-3c0-.69-.56-1.25-1.25-1.25h-3.8z"/><path d="M4.7 4.03a2.15 2.15 0 00-.19-.88 2.297 2.297 0 00-.542-.746 2.525 2.525 0 00-.811-.499A2.69 2.69 0 002.2 1.73v2.3h2.5z"/><path fill-rule="evenodd" d="M10.075 12.23h1.25c0 .473.457 1.042 1.25 1.042.793 0 1.25-.569 1.25-1.042h1.25c0 1.263-1.121 2.292-2.5 2.292s-2.5-1.029-2.5-2.292z"/></svg>