<svg width="160" height="110" viewBox="0 0 160 110" fill="none" xmlns="http://www.w3.org/2000/svg">
<g clip-path="url(#clip0_775_5612)">
<path d="M79.9985 109.993C56.7248 109.995 33.4521 110.009 10.1785 109.987C2.31637 109.98 0.0619239 107.738 0.0339556 99.9143C-0.00300262 89.6118 -0.0239789 79.3083 0.0469409 69.0068C0.09189 62.5485 2.69095 59.9044 9.15164 59.8994C56.1974 59.8615 103.242 59.8615 150.288 59.8994C157.397 59.9054 159.923 62.4816 159.957 69.5044C160.008 79.9728 160.023 90.4422 159.949 100.911C159.903 107.416 157.359 109.96 150.816 109.973C127.211 110.021 103.605 109.992 79.9995 109.994L79.9985 109.993ZM79.9336 99.7544C101.386 99.7544 122.839 99.6725 144.291 99.8274C148.338 99.8564 149.987 98.6822 149.821 94.4703C149.558 87.8311 149.665 81.173 149.785 74.5258C149.841 71.3701 148.668 69.9551 145.416 70.061C141.097 70.2019 136.77 70.089 132.447 70.089C93.699 70.087 54.9508 70.143 16.2037 70.0051C11.7427 69.9891 9.88182 71.1932 10.1555 75.8978C10.5021 81.8625 10.4761 87.8731 10.1705 93.8418C9.93875 98.3535 11.4011 99.9003 16.0768 99.8514C37.3607 99.6275 58.6486 99.7535 79.9346 99.7544H79.9336Z" fill="#0272D5"/>
<path d="M80.5408 50.1235C57.2672 50.1235 33.9945 50.1415 10.7208 50.1155C2.27237 50.1056 0.0478885 47.8742 0.0299088 39.5113C0.00693479 29.3746 -0.0270268 19.238 0.0478885 9.10238C0.0958342 2.58512 2.62997 0.0319753 9.16957 0.0269789C56.3812 -0.00899494 103.593 -0.00799567 150.803 0.0249803C157.378 0.0299767 159.896 2.54015 159.946 9.0754C160.026 19.5438 160.005 30.0132 159.959 40.4816C159.928 47.6074 157.471 50.0966 150.361 50.1086C127.087 50.1465 103.815 50.1225 80.5408 50.1235V50.1235ZM80.0174 39.913C101.47 39.913 122.923 39.909 144.376 39.918C147.135 39.919 149.829 40.0968 149.769 36.0168C149.659 28.7041 149.698 21.3894 149.756 14.0758C149.778 11.3268 148.551 10.1756 145.834 10.2216C141.512 10.2955 137.187 10.2226 132.864 10.2236C93.9497 10.2296 55.0357 10.3075 16.1217 10.1546C11.5179 10.1366 9.92172 11.5306 10.1684 16.1113C10.4901 22.0779 10.4921 28.0896 10.1575 34.0552C9.89775 38.6919 11.6288 40.0409 16.1587 39.9999C37.4436 39.808 58.7305 39.915 80.0164 39.913H80.0174Z" fill="#0272D5"/>
</g>
<defs>
<clipPath id="clip0_775_5612">
<rect width="160" height="110" fill="white"/>
</clipPath>
</defs>
</svg>
