<svg xmlns="http://www.w3.org/2000/svg" width="16" height="16" viewBox="0 0 16 16"><path d="M13.484 5.493h-1.6v-.636c0-1.78-1.09-3.857-4.162-3.857S3.56 3.077 3.56 4.857v.636h-1.6a.96.96 0 00-.96.96v7.044c0 .53.43.96.96.96h11.524c.53 0 .96-.43.96-.96V6.453a.96.96 0 00-.96-.96zM4.84 4.857c0-.605.207-2.576 2.881-2.576s2.882 1.971 2.882 2.576v.636H4.84v-.636zm8.323 8.32H2.28V6.773h10.882v6.404z"/><path d="M7.08 10.476v1.42h1.281v-1.419c.463-.223.703-.684.703-1.142 0-.637-.46-1.281-1.342-1.281-.88 0-1.341.644-1.341 1.28 0 .458.239.918.7 1.142z"/></svg>