<svg width="160" height="110" viewBox="0 0 160 110" fill="none" xmlns="http://www.w3.org/2000/svg">
<path fill-rule="evenodd" clip-rule="evenodd" d="M0 13C0 5.8203 6.05026 0 13.5136 0H121.623C129.086 0 135.136 5.8203 135.136 13V19H124.741V13C124.741 11.3431 123.345 10 121.623 10H13.5136C11.7913 10 10.3951 11.3431 10.3951 13V97C10.3951 98.6569 11.7913 100 13.5136 100H121.623C123.345 100 124.741 98.6569 124.741 97V91H135.136V97C135.136 104.18 129.086 110 121.623 110H13.5136C6.05026 110 0 104.18 0 97V13Z" fill="#0272D5"/>
<path fill-rule="evenodd" clip-rule="evenodd" d="M71.7261 45H5.19751V35H71.7261V45Z" fill="#0272D5"/>
<path fill-rule="evenodd" clip-rule="evenodd" d="M153.213 101.574L123.067 76.5741L129.854 69L160 94L153.213 101.574Z" fill="#0272D5"/>
<path fill-rule="evenodd" clip-rule="evenodd" d="M100.694 77.551C117.58 77.551 129.843 65.4639 129.843 52.1939C129.843 38.9239 117.58 26.8367 100.694 26.8367C83.8087 26.8367 71.5459 38.9239 71.5459 52.1939C71.5459 65.4639 83.8087 77.551 100.694 77.551ZM100.694 87.551C122.484 87.551 140.148 71.7211 140.148 52.1939C140.148 32.6667 122.484 16.8367 100.694 16.8367C78.9048 16.8367 61.241 32.6667 61.241 52.1939C61.241 71.7211 78.9048 87.551 100.694 87.551Z" fill="#0272D5"/>
</svg>
