<svg xmlns="http://www.w3.org/2000/svg" width="16" height="16" viewBox="0 0 16 16"><path d="M13.608 5.48c-1.333 0-2.071.732-2.308 1.6H4.7a2.397 2.397 0 00-.046-.148l2.292-1.8c.358.216.812.348 1.374.348 1.653 0 2.393-1.125 2.393-2.24 0-1.115-.74-2.24-2.393-2.24-1.652 0-2.392 1.125-2.392 2.24 0 .315.06.63.183.92L3.889 5.906c-.373-.263-.869-.425-1.496-.425C.74 5.48 0 6.605 0 7.72c0 1.115.74 2.24 2.393 2.24.624 0 1.117-.16 1.49-.42l2.226 1.742a2.39 2.39 0 00-.181.918c0 1.115.74 2.24 2.392 2.24 1.653 0 2.393-1.125 2.393-2.24 0-1.115-.74-2.24-2.393-2.24-.564 0-1.019.133-1.377.35L4.652 8.515c.017-.052.034-.104.048-.156h6.6c.236.868.975 1.6 2.308 1.6C15.26 9.96 16 8.835 16 7.72c0-1.115-.74-2.24-2.392-2.24zM8.32 2.28c.968 0 1.112.601 1.112.96 0 .358-.144.96-1.112.96-.968 0-1.112-.602-1.112-.96 0-.359.144-.96 1.112-.96zM1.28 7.72c0-.359.145-.96 1.113-.96s1.112.601 1.112.96c0 .358-.144.96-1.112.96-.968 0-1.113-.602-1.113-.96zm7.04 3.52c.968 0 1.112.601 1.112.96s-.144.96-1.112.96c-.968 0-1.112-.602-1.112-.96 0-.359.144-.96 1.112-.96zm5.288-2.56c-.968 0-1.113-.602-1.113-.96 0-.36.145-.96 1.113-.96.967 0 1.112.601 1.112.96 0 .358-.145.96-1.112.96z"/></svg>