<svg xmlns="http://www.w3.org/2000/svg" width="16" height="16" viewbox="0 0 16 16"><path fill-rule="evenodd" d="M8.789 8.851a2.8 2.8 0 00-.105.86 3.19 3.19 0 00.947 2.134 3.19 3.19 0 002.134.946c.3.01.589-.026.86-.104L8.789 8.851zm-.965-.965a3.988 3.988 0 00-.389 1.865 4.44 4.44 0 001.312 2.978 4.44 4.44 0 002.978 1.312 3.988 3.988 0 001.865-.389c.382-.184.731-.43 1.034-.733L8.558 6.851c-.304.303-.55.653-.734 1.034z"/><path fill-rule="evenodd" d="M3.046 3.258h8.136l-.15 1.1H3.196l-.15-1.1zm.32 2.35l.839 6.15h3.802a4.554 4.554 0 001.046 1.25H4.205a1.25 1.25 0 01-1.239-1.081l-1.159-8.5a1.25 1.25 0 011.239-1.419h8.136c.757 0 1.34.668 1.238 1.419l-.874 6.413-1.11-1.11.425-3.122H3.366z"/></svg>