<svg xmlns="http://www.w3.org/2000/svg" width="16" height="16" viewbox="0 0 16 16"><path d="M5.2 8.6H4V2.5H2.8v6.2H1.5c-.5-.1-.9.3-.9.8v1.8c0 .5.4.9.9.9h1.2v1.2h1.2v-1.2h1.2c.5 0 .9-.4.9-.9V9.5c.1-.5-.3-.9-.8-.9zm-.3 2.5H1.8V9.8h3v1.3h.1zm6.5-4.6V4.6c0-.5-.4-.9-.9-.9H9.2V2.5H8v1.2H6.8c-.5 0-.9.4-.9.9v1.8c0 .5.4.9.9.9H8v6.2h1.2V7.4h1.2c.6 0 1-.4 1-.9zm-1.3-.3h-3V4.9h3v1.3zM15.7 8h-1.2V2.5h-1.2V8h-1.2c-.5 0-.9.4-.9.9v1.8c0 .5.4.9.9.9h1.2v1.8h1.2v-1.8h1.2c.5 0 .9-.4.9-.9V8.9c0-.5-.4-.9-.9-.9zm-.3 2.5h-3V9.2h3v1.3z"/></svg>