<svg xmlns="http://www.w3.org/2000/svg" width="16" height="16" viewBox="0 0 16 16"><path d="M4.616 8.462H3.385V2H2.154v6.462H.924A.924.924 0 000 9.385v1.538c0 .509.414.923.923.923h1.231v1.231h1.231v-1.231h1.23a.924.924 0 00.924-.923V9.385a.924.924 0 00-.923-.923zm-.308 2.153H1.23v-.922h3.077v.922zm6.462-4.923V4.154a.924.924 0 00-.924-.923h-1.23V2H7.385v1.231h-1.23a.924.924 0 00-.924.923v1.538c0 .51.415.923.923.923h1.23v6.462h1.232V6.615h1.23a.924.924 0 00.923-.923zm-1.232-.308H6.462v-.922h3.076v.922zm5.539 2.462h-1.23V2h-1.232v5.846h-1.23a.924.924 0 00-.923.923v1.538c0 .51.414.923.923.923h1.23v1.847h1.231V11.23h1.23c.51 0 .924-.414.924-.923V8.77a.924.924 0 00-.923-.923zM14.769 10h-3.076v-.923h3.076V10z"/></svg>