<svg xmlns="http://www.w3.org/2000/svg" width="16" height="16" viewbox="0 0 16 16"><path fill-rule="evenodd" d="M6.173 8.913H4.34v1.833h1.833V8.913zM3.09 7.663v4.334h4.335V7.662H3.09zm9.757 5.835v-3.409a1.176 1.176 0 00-2.352 0v3.409h-1.25v-3.409a2.427 2.427 0 014.853 0v3.409h-1.251z"/><path d="M3.09 5.06h11.008v1.301H3.089v-1.3z"/><path fill-rule="evenodd" d="M2.476 3.753a.625.625 0 00-.625.625v9.12H.6v-9.12c0-1.036.84-1.876 1.876-1.876h12.247c1.037 0 1.877.84 1.877 1.876v9.12h-1.251v-9.12a.625.625 0 00-.626-.625H2.476z"/></svg>