<svg xmlns="http://www.w3.org/2000/svg" width="16" height="16" viewbox="0 0 16 16"><path fill-rule="evenodd" d="M8.6 11.43c2.154 0 3.75-1.61 3.75-3.417 0-1.808-1.596-3.417-3.75-3.417s-3.75 1.61-3.75 3.417c0 1.807 1.596 3.416 3.75 3.416zm0 1.25c2.761 0 5-2.09 5-4.667 0-2.578-2.239-4.667-5-4.667s-5 2.09-5 4.667 2.239 4.666 5 4.666zM7.933 2.013v-2h1.25v2h-1.25zm0 13.999v-2h1.25v2h-1.25zM14.6 7.346h2v1.25h-2v-1.25zm-14 0h2v1.25h-2v-1.25zm11.771-4.048l1.414-1.414.884.884-1.414 1.414-.884-.884zm-9.899 9.9l1.414-1.414.884.884-1.414 1.414-.884-.884zm10.842-1.414l1.414 1.414-.884.884-1.414-1.414.884-.884zm-9.899-9.9l1.414 1.414-.884.884L2.53 2.768l.884-.884z"/></svg>