<svg xmlns="http://www.w3.org/2000/svg" width="16" height="16" viewbox="0 0 16 16"><path d="M10.44 2.276a5.73 5.73 0 00-3.994 1.62 4.49 4.49 0 00-1.739-.348C2.262 3.548.265 5.545.265 8a4.457 4.457 0 006.181 4.104 5.695 5.695 0 003.985 1.62A5.726 5.726 0 0016.155 8a5.71 5.71 0 00-5.714-5.724zm0 10.176A4.457 4.457 0 015.99 8H4.717c0 1.123.328 2.166.884 3.05-.288.08-.576.13-.874.13A3.183 3.183 0 011.547 8a3.183 3.183 0 015.088-2.544A3.172 3.172 0 017.907 8h1.272a4.42 4.42 0 00-1.59-3.409 4.44 4.44 0 012.852-1.043A4.457 4.457 0 0114.893 8a4.457 4.457 0 01-4.452 4.452z"/></svg>