<svg xmlns="http://www.w3.org/2000/svg" width="16" height="16" viewBox="0 0 16 16"><path d="M14.26 10.71L11.58 8l2.26-2.26a2.49 2.49 0 000-3.53 2.5 2.5 0 00-3.53 0l-.89.88L8.01 4.5 5.29 1.75a1.26 1.26 0 00-1.76 0L1.76 3.52a1.25 1.25 0 000 1.77L4.51 8l-.22.22-.89.88-1.75 3.66a1.25 1.25 0 001.67 1.67l3.62-1.75.88-.88.19-.23 2.68 2.68a1.26 1.26 0 001.76 0l1.77-1.77a1.25 1.25 0 00.04-1.77zm-2.19-8a1.27 1.27 0 01.89.36 1.251 1.251 0 010 1.77l-1.77-1.72a1.27 1.27 0 01.88-.36v-.05zM2.64 4.4l1.77-1.76.82.82-.87.88.88.88.88-.88 1 1-1.73 1.81L2.64 4.4zm.13 8.91l1.57-3.23 1.67 1.66-3.24 1.57zm4.17-2.4L5.17 9.14 10.31 4l1.76 1.76-5.13 5.15zm4.67 2.45l-2.68-2.67 1.77-1.77.93.93-.88.88.88.89.89-.89.86.87-1.77 1.76z"/></svg>