<svg xmlns="http://www.w3.org/2000/svg" width="16" height="16" viewbox="0 0 16 16"><path fill-rule="evenodd" d="M2.685 5.433v5.051h1.25V8.86h.892a1.626 1.626 0 011.542 1.623h1.25c0-.763-.298-1.456-.783-1.971a1.713 1.713 0 00-1.035-3.079H2.686zm2.17 2.177h.947a.463.463 0 000-.927H3.935v.924h.808c.037 0 .075.001.112.003z"/><path d="M10.547 4.163h1.25v1.25h.32c.85 0 1.55.68 1.58 1.53h-1.25a.342.342 0 00-.33-.28h-1.91c-.16 0-.3.12-.33.28-.01.02-.01.04-.01.06 0 .19.15.34.34.34h1.96c.49 0 .94.23 1.23.59.22.27.35.62.34.99v.04c-.02.85-.72 1.54-1.58 1.54h-.355v1.252h-1.25v-1.252h-.305c-.86 0-1.56-.69-1.58-1.54h1.26c.02.16.16.29.33.29h1.92c.17 0 .31-.13.33-.29v-.04c0-.19-.15-.34-.34-.34h-1.97a1.586 1.586 0 01-1.58-1.58v-.06c.04-.85.73-1.53 1.59-1.53h.34v-1.25z"/><path fill-rule="evenodd" d="M1.46 1.552c-.69 0-1.25.56-1.25 1.25v10.5c0 .69.56 1.25 1.25 1.25h13.5c.69 0 1.25-.56 1.25-1.25v-10.5c0-.69-.56-1.25-1.25-1.25H1.46zm13.5 1.25H1.46v10.5h13.5v-10.5z"/></svg>