<svg xmlns="http://www.w3.org/2000/svg" width="16" height="16" viewbox="0 0 16 16"><path fill-rule="evenodd" d="M12.806 2.75H4.394l.41 12h7.586l.416-12zM4.394 1.5a1.25 1.25 0 00-1.25 1.293l.41 12A1.25 1.25 0 004.804 16h7.586a1.25 1.25 0 001.25-1.207l.415-12A1.25 1.25 0 0012.806 1.5H4.394z"/><path d="M4.26 4h8.53v1.25H4.26V4zm2.587 3v5h-1.25V7h1.25zm2.375 0v5h-1.25V7h1.25zm2.375 0v5h-1.25V7h1.25zm-3-7c.69 0 1.25.525 1.25 1.17 0 .646-.56 1.17-1.25 1.17s-1.25-.524-1.25-1.17c0-.645.56-1.17 1.25-1.17z"/><path d="M7.347 1.203h2.5V2.5h-2.5V1.203z"/></svg>