<svg xmlns="http://www.w3.org/2000/svg" width="16" height="16" viewbox="0 0 16 16"><path fill-rule="evenodd" d="M5.703 12.508c0-.337-.32-.751-.888-.751-.567 0-.887.414-.887.751s.32.752.887.752c.568 0 .888-.415.888-.752zm1.252 0c0-1.104-.96-2.003-2.14-2.003-1.18 0-2.14.899-2.14 2.003 0 1.105.96 2.004 2.14 2.004 1.18 0 2.14-.9 2.14-2.004z"/><path fill-rule="evenodd" d="M9.424 2.74H2.352v8.516h.794c-.294.343-.47.779-.47 1.252h-.324c-.691 0-1.252-.56-1.252-1.252V2.74c0-.691.56-1.252 1.252-1.252h7.072c.692 0 1.253.56 1.253 1.252v1.754h2.014c.359 0 .7.154.938.422l2.157 2.44c.202.229.314.524.314.83v3.07c0 .674-.533 1.224-1.2 1.251a1.92 1.92 0 00-.47-1.251h.418v-2.63h-4.171v2.63h.414c-.295.343-.47.779-.47 1.252H6.954c0-.473-.176-.909-.47-1.252H9.42v-5.51c0-.035.002-.069.004-.103V2.74zm4.706 4.634h-3.453V5.746h2.014l1.44 1.628z"/><path fill-rule="evenodd" d="M13.648 12.508c0-.337-.32-.751-.888-.751-.567 0-.887.414-.887.751s.32.752.887.752.888-.415.888-.752zm1.252 0c0-1.104-.96-2.003-2.14-2.003-1.18 0-2.14.899-2.14 2.003 0 1.105.96 2.004 2.14 2.004 1.18 0 2.14-.9 2.14-2.004z"/></svg>