<svg xmlns="http://www.w3.org/2000/svg" width="16" height="16" viewBox="0 0 16 16"><path fill-rule="evenodd" d="M14.75 10.441V6.282H16v4.16h-1.25zM2.527 8.476v2.818c0 .447.238.86.625 1.083l4.243 2.45a1.25 1.25 0 001.25 0l4.243-2.45a1.25 1.25 0 00.625-1.083V8.45l-1.25.742v2.102l-4.243 2.45-4.243-2.45V9.218l-1.25-.742z"/><path fill-rule="evenodd" d="M14.746 6.264L7.998 2.256 1.25 6.264l6.748 4.008 6.748-4.008zM8.636 1.18a1.25 1.25 0 00-1.276 0L.612 5.19a1.25 1.25 0 000 2.15l6.748 4.007a1.25 1.25 0 001.276 0l6.748-4.008a1.25 1.25 0 000-2.149L8.636 1.181z"/></svg>