<svg xmlns="http://www.w3.org/2000/svg" width="16" height="16" viewbox="0 0 16 16"><path d="M8.595 3.605a3.57 3.57 0 012.49-1.06 2.9 2.9 0 013 3 3.65 3.65 0 01-2.76 3.43l1 1a4.711 4.711 0 001.54-1 4.79 4.79 0 001.42-3.38 4.16 4.16 0 00-2.596-3.914 4.16 4.16 0 00-1.624-.306 4.79 4.79 0 00-3.38 1.34 4.71 4.71 0 00-1 1.54l1 1a3.6 3.6 0 01.91-1.65zm-6.31-.17l2.59 2.59a4.71 4.71 0 00-1.54 1 4.79 4.79 0 00-1.42 3.38 4.16 4.16 0 002.596 3.914c.516.21 1.068.314 1.624.306a4.792 4.792 0 003.38-1.42 4.71 4.71 0 001-1.54l2.74 2.74.89-.88-11-11-.86.91zm6.31 8.91a3.57 3.57 0 01-2.49 1.06 2.9 2.9 0 01-3-3 3.65 3.65 0 012.75-3.43l3.74 3.74a3.57 3.57 0 01-1 1.63z"/></svg>