<svg xmlns="http://www.w3.org/2000/svg" width="16" height="16" viewBox="0 0 16 16"><path fill-rule="evenodd" d="M5.552 6.146a2.554 2.554 0 002.55 2.551 2.554 2.554 0 002.552-2.551V4.55A2.554 2.554 0 008.103 2a2.554 2.554 0 00-2.551 2.551v1.595zM6.827 4.55a1.277 1.277 0 012.551 0v1.595c0 .703-.572 1.275-1.275 1.275a1.277 1.277 0 01-1.276-1.275V4.551zm5.102 9.568h1.276v-.957c0-1.746-.886-3.827-5.103-3.827S3 11.416 3 13.162v.957h1.276v-.957c0-1.095.396-2.551 3.826-2.551s3.827 1.456 3.827 2.551v.957z"/></svg>