<svg xmlns="http://www.w3.org/2000/svg" viewBox="0 0 16 16"><path d="M8 3.2a2.56 2.56 0 00-2.56 2.56V7a2.56 2.56 0 005.12 0V5.76A2.56 2.56 0 008 3.2zM9.28 7a1.28 1.28 0 01-2.56 0V5.76a1.28 1.28 0 012.56 0z"/><path d="M8 .64C2.1.64 0 4.6 0 8s2.1 7.36 8 7.36 8-4 8-7.36S13.9.64 8 .64zM4.26 13.27c.17-.65.8-1.75 3.74-1.75 2.72 0 3.49.89 3.73 1.71a8.63 8.63 0 01-3.73.85 7.86 7.86 0 01-3.74-.81zm8.57-.75c-.78-1.86-3-2.28-4.83-2.28s-4 .42-4.83 2.28A6.24 6.24 0 011.28 8c0-5.79 5.6-6.08 6.72-6.08 6.4 0 6.72 5.08 6.72 6.08a5.57 5.57 0 01-1.89 4.52z"/></svg>