<svg xmlns="http://www.w3.org/2000/svg" width="17" height="16" viewBox="0 0 17 16"><path fill-rule="evenodd" d="M0 8.36C0 4.966 2.095 1 8 1c5.906 0 8.001 3.965 8.001 7.36 0 3.396-2.095 7.361-8 7.361C2.095 15.721 0 11.756 0 8.361zm8 3.52c-2.938 0-3.572 1.1-3.744 1.755.93.49 2.147.806 3.745.806.555 0 2.204-.073 3.73-.845-.24-.826-1.011-1.715-3.73-1.715zm0-1.28c1.843 0 4.046.424 4.828 2.278 1.074-.897 1.893-2.305 1.893-4.518 0-1.015-.324-6.08-6.72-6.08-1.122 0-6.72.293-6.72 6.08 0 .648.134 2.942 1.89 4.52C3.951 11.02 6.16 10.6 8 10.6zM5.44 6.12A2.563 2.563 0 018 3.56a2.564 2.564 0 012.56 2.56V7.4A2.563 2.563 0 018 9.96 2.563 2.563 0 015.44 7.4V6.12zM8 8.68c.706 0 1.28-.574 1.28-1.28V6.12a1.281 1.281 0 00-2.56 0V7.4c0 .706.575 1.28 1.28 1.28z"/></svg>