<svg xmlns="http://www.w3.org/2000/svg" width="16" height="16" viewBox="0 0 16 16"><path d="M12.16 8.72a2.243 2.243 0 002.239-2.24v-.96a2.243 2.243 0 00-2.24-2.24 2.243 2.243 0 00-2.24 2.24v.96a2.243 2.243 0 002.24 2.24zm-.96-3.2a.961.961 0 011.92 0v.96a.961.961 0 01-1.92 0v-.96zm.959 4.16c-1.373 0-2.364.278-3.001.843-.764-.687-2.02-1.163-4.038-1.163C.888 9.36 0 11.448 0 13.2v.96h1.28v-.96c0-1.1.398-2.56 3.84-2.56 3.442 0 3.84 1.46 3.84 2.56v.96h1.28v-.96c0-.534-.084-1.099-.318-1.626.375-.411 1.109-.614 2.238-.614 2.256 0 2.56.808 2.56 1.6v1.6H16v-1.6c-.001-2.38-2.09-2.88-3.841-2.88zM5.12 8.72c1.5 0 2.72-1.22 2.72-2.72V4.72C7.84 3.22 6.62 2 5.12 2 3.62 2 2.4 3.22 2.4 4.72V6c0 1.5 1.22 2.72 2.72 2.72zm-1.44-4a1.441 1.441 0 012.88 0V6a1.441 1.441 0 01-2.88 0V4.72z"/></svg>