<svg xmlns="http://www.w3.org/2000/svg" width="16" height="16" viewBox="0 0 16 16"><path fill-rule="evenodd" d="M14.75 8c0 2.052-1.088 3.918-2.795 5.067-.502-1.628-2.111-2.78-3.953-2.78-1.843 0-3.453 1.153-3.954 2.782C2.34 11.92 1.25 10.054 1.25 8c0-3.377 2.945-6.25 6.75-6.25S14.75 4.623 14.75 8zm-6.748 3.512c1.454 0 2.6.96 2.842 2.16A7.17 7.17 0 018 14.25a7.171 7.171 0 01-2.84-.576c.24-1.201 1.387-2.162 2.842-2.162zM16 8c0 4.142-3.582 7.5-8 7.5S0 12.142 0 8C0 3.858 3.582.5 8 .5s8 3.358 8 7.5zm-7.95-.15c-.478 0-1-.438-1-1.15s.522-1.15 1-1.15 1 .438 1 1.15-.522 1.15-1 1.15zm0 1.25C6.807 9.1 5.8 8.025 5.8 6.7s1.007-2.4 2.25-2.4 2.25 1.075 2.25 2.4-1.007 2.4-2.25 2.4z"/></svg>