<svg xmlns="http://www.w3.org/2000/svg" width="16" height="16" viewBox="0 0 16 16"><path fill-rule="evenodd" d="M5.096 6.676c.762 0 1.522-.689 1.522-1.71 0-1.02-.76-1.71-1.522-1.71-.76 0-1.52.69-1.52 1.71 0 1.021.76 1.71 1.52 1.71zm0 1.252c1.53 0 2.774-1.328 2.774-2.961 0-1.634-1.245-2.962-2.774-2.962-1.528 0-2.773 1.328-2.773 2.962 0 1.633 1.245 2.961 2.773 2.961zm7.19-.871c.505 0 1.055-.466 1.055-1.212s-.55-1.212-1.055-1.212c-.504 0-1.055.466-1.055 1.212s.55 1.212 1.055 1.212zm0 1.252c1.272 0 2.308-1.105 2.308-2.464 0-1.36-1.036-2.464-2.308-2.464-1.272 0-2.307 1.105-2.307 2.464 0 1.36 1.035 2.464 2.307 2.464zm-7.19 2.121c-2.158 0-3.844 1.638-3.844 3.565H0c0-2.693 2.323-4.817 5.096-4.817 2.774 0 5.097 2.124 5.097 4.817H8.94c0-1.927-1.686-3.565-3.845-3.565z"/><path fill-rule="evenodd" d="M12.225 10.814c-1.175 0-2.134.738-2.428 1.692L8.6 12.137c.465-1.507 1.93-2.575 3.625-2.575 2.044 0 3.775 1.568 3.775 3.579v.854h-1.252v-.854c0-1.245-1.093-2.327-2.523-2.327z"/></svg>