<svg xmlns="http://www.w3.org/2000/svg" width="16" height="16" viewbox="0 0 16 16"><path fill-rule="evenodd" d="M8.212 6.65c-1.656 0-3-1.433-3-3.2 0-1.767 1.344-3.2 3-3.2 1.657 0 3 1.433 3 3.2 0 1.767-1.343 3.2-3 3.2zm0-1.25c-.891 0-1.75-.796-1.75-1.95s.859-1.95 1.75-1.95c.892 0 1.75.796 1.75 1.95S9.104 5.4 8.212 5.4z"/><path d="M12.387 12.525c0-1.822-1.776-3.463-4.187-3.463-2.41 0-4.188 1.64-4.188 3.463v3.225H2.787v-3.225c0-2.68 2.522-4.688 5.413-4.688 2.891 0 5.413 2.009 5.413 4.688v3.225h-1.226v-3.225z"/></svg>